<svg width="400" height="400" xmlns="http://www.w3.org/2000/svg">
 <!-- Created with SVG-edit - http://svg-edit.googlecode.com/ -->
 <g>
  <title>Layer 1</title>
  <path fill="#ffaaaa" stroke="#000000" stroke-width="5" stroke-dasharray="null" stroke-linejoin="null" stroke-linecap="null" d="m167,165c-3,-9 -7,-16 -11,-23c-4,-7 -6,-17 -9,-28c-3,-11 2,-33 2,-33c0,0 18,-26 18,-26c0,0 64,1 64,1c0,0 22,20 22,20c0,0 6,18 5,27c-1,9 -5,24 -7,30c-2,6 -20,28 -20,28c0,0 -64,4 -64,4z" id="svg_5"/>
  <path fill="#007f00" stroke-width="5" d="m171.218689,333c-17.99353,-7.333344 -54.873734,-105.666687 -41.410126,-157l53.21106,-15l34.324402,-1l52.293091,15c18.523499,50 -18.312439,160 -37.082031,160c-18.769592,0 -43.342865,5.333344 -61.336395,-2z" id="svg_3" stroke="#000000"/>
  <path fill="#7f7f7f" stroke="#000000" stroke-width="5" stroke-dasharray="null" stroke-linejoin="null" stroke-linecap="null" d="m135,122l35,9l-12,-38l17,-24l21.5,24.75l1.875,24.188004l8.875,0.186996l2.75,-21.625l22,-26.5l13,16l-3,45l23,-10l-2,-62l-19,-32l-37,-11l-51,11l-21,27l0,68z" id="svg_6"/>
  <rect fill="#ffffff" stroke="#000000" stroke-width="5" stroke-dasharray="null" stroke-linejoin="null" stroke-linecap="null" x="172" y="92" width="18" height="20" id="svg_11"/>
  <rect fill="#ffffff" stroke="#000000" stroke-width="5" stroke-dasharray="null" stroke-linejoin="null" stroke-linecap="null" x="222" y="97" width="13" height="11" id="svg_14"/>
  <rect fill="#7f0000" stroke="#7f0000" stroke-width="5" stroke-dasharray="null" stroke-linejoin="null" stroke-linecap="null" x="170" y="85" width="21" height="8" id="svg_15"/>
  <rect fill="#7f0000" stroke="#7f0000" stroke-width="5" stroke-dasharray="null" stroke-linejoin="null" stroke-linecap="null" x="221" y="83" width="23" height="8" id="svg_16" transform="rotate(8.29714 232.5 87)"/>
  <rect fill="#000000" stroke="#007fff" stroke-width="4" stroke-dasharray="null" stroke-linejoin="null" stroke-linecap="null" x="177" y="99" width="9" height="9" id="svg_24"/>
  <rect fill="#000000" stroke="#007fff" stroke-width="2" stroke-dasharray="null" stroke-linejoin="null" stroke-linecap="null" x="226" y="101" width="6" height="5" id="svg_27"/>
 </g>
</svg>